<svg width="1327" height="396" viewBox="0 0 1327 396" fill="none" xmlns="http://www.w3.org/2000/svg">
<g clip-path="url(#clip0_378_381)">
<path d="M382 98.5C399.1 98.5 412.9 112.3 412.9 129.4V272.6H382V98.5Z" fill="#1A1A1A"/>
<path d="M536.4 56C536.4 73.1 522.6 86.9 505.5 86.9H382V56H536.4Z" fill="#1A1A1A"/>
<path d="M536.4 241.7H412.9V272.6H536.4V241.7Z" fill="#1A1A1A"/>
<path d="M505.5 149L493.9 179.9H412.9V149H505.5Z" fill="#1A1A1A"/>
<path d="M740.2 130.9H709.3V274.5H740.2V130.9Z" fill="#1A1A1A"/>
<path d="M709.3 75.3H740.2C740.2 92.4 726.4 106.2 709.3 106.2V75.3Z" fill="#1A1A1A"/>
<path fill-rule="evenodd" clip-rule="evenodd" d="M920.1 130.9H888.8V305.3C888.8 307.4 887.1 309.2 884.9 309.2H810.4C793.1 309.2 779.1 322.4 779.1 338.6H888.7H890.6C906.8 338.6 920 325.4 920 309.2V130.9H920.1Z" fill="#1A1A1A"/>
<path fill-rule="evenodd" clip-rule="evenodd" d="M814.7 161.8C804.3 161.8 795.8 170.3 795.8 180.7V222.8C795.8 233.2 804.3 241.7 814.7 241.7H869.5C879.9 241.7 888.4 233.2 888.4 222.8V180.7C888.4 170.3 879.9 161.8 869.5 161.8H814.7ZM811.2 130.9C785.6 130.9 764.9 151.6 764.9 177.2V226.2C764.9 251.8 785.6 272.5 811.2 272.5H849.8C875.4 272.5 896.1 251.8 896.1 226.2V177.2C896.1 151.6 875.4 130.9 849.8 130.9H811.2Z" fill="#1A1A1A"/>
<path d="M1309.1 130.9H1278.2V272.6H1309.1V130.9Z" fill="#1A1A1A"/>
<path fill-rule="evenodd" clip-rule="evenodd" d="M1204.5 161.8C1194.1 161.8 1185.6 170.3 1185.6 180.7V222.8C1185.6 233.2 1194.1 241.7 1204.5 241.7H1259.3C1269.7 241.7 1278.2 233.2 1278.2 222.8V180.7C1278.2 170.3 1269.7 161.8 1259.3 161.8H1204.5ZM1201.1 130.9C1175.5 130.9 1154.8 151.6 1154.8 177.2V226.2C1154.8 251.8 1175.5 272.5 1201.1 272.5H1238.9C1264.5 272.5 1285.2 251.8 1285.2 226.2V177.2C1285.2 151.6 1264.5 130.9 1238.9 130.9H1201.1Z" fill="#1A1A1A"/>
<path d="M561.1 173.3C578.2 173.3 592 187.1 592 204.2V272.5H561.1V173.3Z" fill="#1A1A1A"/>
<path fill-rule="evenodd" clip-rule="evenodd" d="M638.3 130.9H561.1V161.8H638.3C646.8 161.8 653.7 168.7 653.7 177.2V272.5H561.1H684.6V177.2C684.6 151.6 663.9 130.9 638.3 130.9Z" fill="#1A1A1A"/>
<path d="M944.8 173.3C961.9 173.3 975.7 187.1 975.7 204.2V272.1H944.8V173.3Z" fill="#1A1A1A"/>
<path fill-rule="evenodd" clip-rule="evenodd" d="M1083.7 130.9H944.7V161.8H1083.7C1092.2 161.8 1099.1 168.7 1099.1 177.2V272.5H944.8H1130V177.2C1130 151.6 1109.3 130.9 1083.7 130.9Z" fill="#1A1A1A"/>
<path d="M1053.3 191.1H1022V272.5H1053.3V191.1Z" fill="#1A1A1A"/>
<path d="M1006.5 161.8H1037.8L1053.2 191.1H1022L1006.5 161.8Z" fill="#1A1A1A"/>
</g>
<g clip-path="url(#clip1_378_381)">
<path fill-rule="evenodd" clip-rule="evenodd" d="M157 192C157 115.2 94.7 53 18 53V99.3C69.2 99.3 110.6 140.8 110.6 191.9H157V192Z" fill="#1A1A1A"/>
<path fill-rule="evenodd" clip-rule="evenodd" d="M157 342.5C157 265.8 94.8 203.5 18 203.5V249.8C69.2 249.8 110.6 291.3 110.6 342.4L157 342.5Z" fill="#1A1A1A"/>
<path fill-rule="evenodd" clip-rule="evenodd" d="M168.5 342.5C168.5 265.8 230.7 203.5 307.5 203.5V249.8C256.3 249.8 214.9 291.3 214.9 342.4L168.5 342.5Z" fill="#1A1A1A"/>
<path fill-rule="evenodd" clip-rule="evenodd" d="M201.3 192H168.5V159.2L201.3 192ZM261.3 53H307.5V191.6H261.2V123.5L201.3 192L168.5 159.2L261.3 53Z" fill="#1A1A1A"/>
</g>
<defs>
<clipPath id="clip0_378_381">
<rect width="927.1" height="282.5" fill="white" transform="translate(382 56)"/>
</clipPath>
<clipPath id="clip1_378_381">
<rect width="289.5" height="289.5" fill="white" transform="translate(18 53)"/>
</clipPath>
</defs>
</svg>
