<svg width="75" height="60" viewBox="0 0 75 60" fill="none" xmlns="http://www.w3.org/2000/svg">
<path d="M37.1918 2.24083L70.0602 15.2748L37.1915 28.309L10.1888 17.6154L8.04023 16.7645L8.1378 19.0733L9.77086 57.7177H5.51308L7.21974 17.4989L7.26498 16.4326L6.27241 16.0403L4.32945 15.2725L37.1918 2.24083ZM15.0293 35.7463C14.4785 35.7463 13.9382 35.7684 13.4099 35.8058C14.0853 32.6875 15.3845 29.7877 17.1464 27.242L36.6385 34.9786L37.1918 35.1982L37.7452 34.9786L57.2373 27.242C58.9991 29.7877 60.2984 32.6875 60.9738 35.8058C60.4455 35.7684 59.9052 35.7463 59.3543 35.7463C50.2292 35.7463 42.1514 40.1987 37.1939 47.0193C34.9008 43.8558 31.941 41.2131 28.5109 39.2804C24.4008 36.9647 19.7555 35.7472 15.0296 35.7463H15.0293ZM37.1918 10.1129C35.9988 10.1129 34.8386 10.3462 33.9206 10.7981C33.0923 11.2059 31.9981 12.0502 31.9981 13.4439C31.9981 14.8375 33.0923 15.6819 33.9206 16.0896C34.8386 16.5415 35.9988 16.7748 37.1918 16.7748C38.3849 16.7748 39.5451 16.5415 40.463 16.0896C41.2914 15.6819 42.3856 14.8375 42.3856 13.4439C42.3856 12.0502 41.2914 11.2059 40.463 10.7981C39.5451 10.3462 38.3849 10.1129 37.1918 10.1129Z" stroke="#001833" stroke-width="3"/>
</svg>
