<svg width="49" height="49" viewBox="0 0 49 49" fill="none" xmlns="http://www.w3.org/2000/svg">
<path d="M21.2044 15.5791H17.7472V34.5937H21.2044V15.5791Z" fill="#001833"/>
<path d="M31.5761 15.5791H28.1189V34.5937H31.5761V15.5791Z" fill="#001833"/>
<path d="M24.6616 0.0216076C27.8864 0.0206103 31.0784 0.668013 34.048 1.92533C37.0176 3.18264 39.704 5.02419 41.9476 7.34051V0.0216076H45.4048V13.8504H31.576V10.3932H40.0842C36.8456 6.79677 32.4499 4.44797 27.6601 3.7546C22.8703 3.06123 17.989 4.06707 13.8635 6.5975C9.73799 9.12793 6.62887 13.0232 5.07591 17.6069C3.52294 22.1907 3.62419 27.1736 5.36207 31.6905C7.09996 36.2074 10.3647 39.9731 14.5896 42.3339C18.8145 44.6947 23.7327 45.5014 28.4903 44.614C33.248 43.7267 37.5447 41.2012 40.6345 37.4762C43.7243 33.7512 45.4121 29.0617 45.4048 24.222H48.862C48.862 29.0084 47.4427 33.6873 44.7835 37.6671C42.1244 41.6468 38.3448 44.7486 33.9227 46.5803C29.5007 48.412 24.6348 48.8912 19.9403 47.9574C15.2459 47.0237 10.9338 44.7188 7.54933 41.3343C4.16484 37.9498 1.85998 33.6377 0.926197 28.9433C-0.00758174 24.2489 0.471667 19.383 2.30334 14.9609C4.13501 10.5389 7.23684 6.75929 11.2166 4.10011C15.1963 1.44094 19.8752 0.0216076 24.6616 0.0216076Z" fill="#001833"/>
</svg>
