<svg width="49" height="49" viewBox="0 0 49 49" fill="none" xmlns="http://www.w3.org/2000/svg">
<path d="M43.0801 35.5906C41.5658 34.075 39.7964 32.8381 37.8529 31.9364C40.5936 29.7161 42.342 26.3281 42.342 22.5288C42.342 15.8254 36.7518 10.3261 30.0483 10.4289C23.4477 10.5318 18.1297 15.9101 18.1297 22.5288C18.1297 26.3281 19.8842 29.7161 22.6188 31.9364C20.675 32.8374 18.9054 34.0745 17.3915 35.5906C14.0882 38.8999 12.2127 43.2679 12.0917 47.9264C12.0901 47.9909 12.1014 48.0552 12.125 48.1153C12.1486 48.1754 12.184 48.2302 12.2291 48.2765C12.2742 48.3227 12.3281 48.3594 12.3876 48.3845C12.4472 48.4096 12.5111 48.4225 12.5757 48.4225H15.9637C16.2239 48.4225 16.4417 48.2168 16.4477 47.9566C16.5627 44.4477 17.9845 41.1626 20.4831 38.67C21.7618 37.3846 23.2826 36.3656 24.9577 35.6719C26.6328 34.9782 28.4288 34.6236 30.2419 34.6286C33.9264 34.6286 37.3931 36.0625 40.0007 38.67C42.4933 41.1626 43.9151 44.4477 44.0361 47.9566C44.0421 48.2168 44.2599 48.4225 44.5201 48.4225H47.9081C47.9727 48.4225 48.0366 48.4096 48.0962 48.3845C48.1557 48.3594 48.2096 48.3227 48.2547 48.2765C48.2998 48.2302 48.3352 48.1754 48.3588 48.1153C48.3824 48.0552 48.3937 47.9909 48.3921 47.9264C48.2711 43.2679 46.3956 38.8999 43.0801 35.5906ZM30.2419 30.2727C28.1728 30.2727 26.2246 29.468 24.7666 28.004C24.0348 27.278 23.4568 26.4121 23.067 25.4579C22.6772 24.5037 22.4836 23.4808 22.4978 22.4501C22.516 20.4657 23.3085 18.5479 24.694 17.1262C26.146 15.6379 28.0881 14.8091 30.1632 14.7849C32.2142 14.7667 34.2047 15.5653 35.6688 16.9991C37.1692 18.4693 37.992 20.4355 37.992 22.5288C37.992 24.5978 37.1874 26.5399 35.7233 28.004C35.0049 28.7257 34.1507 29.2978 33.2098 29.6872C32.2689 30.0767 31.2602 30.2756 30.2419 30.2727ZM15.0865 24.1259C15.032 23.5996 15.0018 23.0672 15.0018 22.5288C15.0018 21.5668 15.0925 20.6291 15.2619 19.7156C15.3043 19.4978 15.1893 19.2739 14.9897 19.1832C14.1669 18.8141 13.4106 18.3059 12.7572 17.6646C11.9873 16.9181 11.3814 16.0193 10.9783 15.0255C10.5751 14.0318 10.3836 12.9649 10.4158 11.893C10.4703 9.95096 11.2507 8.10573 12.612 6.71425C14.1064 5.18362 16.115 4.34873 18.2507 4.37293C20.1806 4.39108 22.0441 5.13522 23.4537 6.4541C23.9317 6.9018 24.3431 7.39789 24.6879 7.93029C24.8089 8.11783 25.0449 8.19648 25.2506 8.12388C26.3154 7.75484 27.4407 7.49469 28.5963 7.37369C28.9351 7.33739 29.1287 6.9744 28.9774 6.6719C27.0112 2.78179 22.9939 0.0956252 18.3475 0.023026C11.6379 -0.0798228 6.04767 5.41956 6.04767 12.1168C6.04767 15.9162 7.79613 19.3042 10.5368 21.5245C8.61289 22.4138 6.84022 23.642 5.30351 25.1786C1.98807 28.4879 0.112547 32.856 -0.00845467 37.5205C-0.0100695 37.5851 0.00125643 37.6493 0.024856 37.7094C0.0484555 37.7696 0.0838511 37.8243 0.128957 37.8706C0.174063 37.9168 0.227967 37.9535 0.287492 37.9786C0.347017 38.0037 0.410959 38.0166 0.475551 38.0166H3.86964C4.12979 38.0166 4.3476 37.8109 4.35365 37.5507C4.4686 34.0418 5.89036 30.7567 8.38904 28.2641C10.1678 26.4854 12.3458 25.2512 14.7235 24.6523C14.9594 24.5918 15.1167 24.3679 15.0865 24.1259Z" fill="#001833"/>
</svg>
