<svg width="65" height="65" viewBox="0 0 65 65" fill="none" xmlns="http://www.w3.org/2000/svg">
<path d="M36.3188 32.5L47.9647 20.8813C48.4746 20.3713 48.7612 19.6796 48.7612 18.9583C48.7612 18.2371 48.4746 17.5454 47.9647 17.0354C47.4547 16.5254 46.763 16.2389 46.0417 16.2389C45.3205 16.2389 44.6288 16.5254 44.1188 17.0354L32.5001 28.6813L20.8813 17.0354C20.3713 16.5254 19.6796 16.2389 18.9584 16.2389C18.2372 16.2389 17.5455 16.5254 17.0355 17.0354C16.5255 17.5454 16.239 18.2371 16.239 18.9583C16.239 19.6796 16.5255 20.3713 17.0355 20.8813L28.6813 32.5L17.0355 44.1188C16.7816 44.3705 16.5802 44.6701 16.4427 45.0001C16.3052 45.3301 16.2344 45.6841 16.2344 46.0417C16.2344 46.3992 16.3052 46.7532 16.4427 47.0832C16.5802 47.4133 16.7816 47.7128 17.0355 47.9646C17.2873 48.2184 17.5868 48.4199 17.9168 48.5574C18.2469 48.6949 18.6009 48.7657 18.9584 48.7657C19.3159 48.7657 19.6699 48.6949 20 48.5574C20.33 48.4199 20.6296 48.2184 20.8813 47.9646L32.5001 36.3188L44.1188 47.9646C44.3706 48.2184 44.6701 48.4199 45.0002 48.5574C45.3302 48.6949 45.6842 48.7657 46.0417 48.7657C46.3993 48.7657 46.7533 48.6949 47.0833 48.5574C47.4133 48.4199 47.7129 48.2184 47.9647 47.9646C48.2185 47.7128 48.42 47.4133 48.5575 47.0832C48.695 46.7532 48.7658 46.3992 48.7658 46.0417C48.7658 45.6841 48.695 45.3301 48.5575 45.0001C48.42 44.6701 48.2185 44.3705 47.9647 44.1188L36.3188 32.5Z" fill="#707070"/>
</svg>
