<svg width="200" height="200" viewBox="0 0 200 200" fill="none" xmlns="http://www.w3.org/2000/svg">
<path d="M90.7562 17.307C89.288 17.4375 87.9693 16.5167 87.8212 14.8512C87.6732 13.1858 88.8088 12.0468 90.277 11.9162C91.7452 11.7857 93.0639 12.7065 93.212 14.372C93.36 16.0374 92.2244 17.1764 90.7562 17.307Z" fill="black"/>
<path d="M57.5908 33.8234L47.9894 40.6692L39.4322 28.6675L49.0336 21.8217L50.2725 23.5592L42.6057 29.0256L45.0068 32.3933L52.4049 27.1185L53.631 28.8381L46.2329 34.1129L48.6852 37.5522L56.3519 32.0858L57.5908 33.8234Z" fill="black"/>
<path d="M33.3115 58.1114L31.8892 60.0146L20.0821 51.1908L24.6652 45.0581C26.667 42.3795 29.1738 41.6712 31.3766 43.3175C33.3327 44.7793 33.5697 46.9613 32.0336 49.2739L32.157 49.3661C33.0885 48.6341 33.9333 48.6063 34.9895 48.7365L39.8833 49.3177L38.2502 51.5029L33.5809 50.9521C32.2518 50.7828 31.4558 51.0393 30.3496 52.5196L28.7297 54.6872L33.3115 58.1114ZM23.2138 50.565L27.267 53.5941L30.4146 49.3823C31.5999 47.7963 31.6462 46.595 30.166 45.4887C28.7209 44.4088 27.5467 44.7672 26.3614 46.3532L23.2138 50.565Z" fill="black"/>
<path d="M27.064 70.7473L23.2185 81.8946L9.28431 77.0878L13.1298 65.9404L15.1471 66.6363L12.0765 75.5376L15.9864 76.8864L18.9494 68.2971L20.946 68.9858L17.9829 77.5751L21.976 78.9526L25.0466 70.0513L27.064 70.7473Z" fill="black"/>
<path d="M21.4405 106.361L21.4149 108.737L6.67579 108.578L6.7014 106.202L12.949 106.269L13.0425 97.6019L6.79482 97.5345L6.82019 95.1807L21.5593 95.3395L21.534 97.6934L15.1763 97.6249L15.0829 106.292L21.4405 106.361Z" fill="black"/>
<path d="M33.6605 142.568L34.7549 144.677L21.6717 151.467L20.5773 149.358L26.162 146.459L24.1049 142.495L16.5339 141.566L15.2368 139.067L24.0716 140.282L28.3301 132.297L29.6272 134.796L26.1155 141.402L28.1929 145.405L33.6605 142.568Z" fill="black"/>
<path d="M47.3243 157.926C50.6452 161.074 50.7901 165.334 47.6267 168.671C44.4634 172.008 40.2016 172.091 36.8807 168.942C33.8631 166.082 33.2692 162.487 35.6909 159.933L35.9028 159.709L37.8027 161.51L37.5908 161.734C36.047 163.362 36.2523 165.224 38.4237 167.283C40.9304 169.659 43.279 169.612 45.8066 166.946C48.3342 164.279 48.2409 161.948 45.7342 159.571C43.5628 157.513 41.7077 157.391 40.1487 159.036L39.952 159.243L38.052 157.442L38.2488 157.235C40.6856 154.664 44.2907 155.05 47.3243 157.926Z" fill="black"/>
<path d="M63.0975 169.308L65.1732 170.464L58.001 183.342L55.9253 182.185L63.0975 169.308Z" fill="black"/>
<path d="M75.724 174.749L86.7719 177.802L82.8455 192.01L80.5554 191.377L83.9133 179.226L75.1556 176.806L75.724 174.749Z" fill="black"/>
<path d="M104.763 178.179C109.336 177.996 112.489 180.864 112.673 185.459C112.857 190.053 109.943 193.164 105.37 193.347C101.215 193.513 98.2259 191.431 98.0852 187.913L98.0729 187.606L100.689 187.501L100.701 187.809C100.791 190.051 102.268 191.203 105.258 191.083C108.709 190.945 110.314 189.23 110.167 185.559C110.02 181.888 108.284 180.328 104.833 180.466C101.843 180.585 100.462 181.83 100.553 184.094L100.564 184.38L97.948 184.484L97.9366 184.198C97.7951 180.659 100.587 178.346 104.763 178.179Z" fill="black"/>
<path d="M147.423 168.403C148.654 167.592 150.251 167.778 151.171 169.174C152.091 170.57 151.632 172.111 150.401 172.922C149.17 173.733 147.573 173.548 146.652 172.152C145.732 170.756 146.192 169.214 147.423 168.403Z" fill="black"/>
<path d="M170.316 134.552C172.305 130.627 175.046 129.5 177.813 130.903L177.931 130.962L176.857 133.082L176.543 132.923C174.973 132.127 173.721 132.652 172.259 135.536C170.986 138.048 171.088 139.21 172.324 139.836C173.463 140.413 174.232 139.965 175.392 138.456L177.552 135.506C179.069 133.487 180.885 132.434 183.043 133.528C184.947 134.493 186.074 137.037 184.006 141.119C182.057 144.966 179.249 145.737 176.678 144.435L176.56 144.375L177.624 142.275L177.879 142.405C179.488 143.22 180.78 142.666 182.163 139.938C183.376 137.544 183.264 136.304 182.087 135.707C180.949 135.131 180.238 135.609 179.119 136.99L176.948 139.91C175.145 142.301 173.291 142.99 171.368 142.015C169.366 141.001 168.347 138.437 170.316 134.552Z" fill="black"/>
<path d="M177.791 109.691C178.489 105.346 181.19 103.24 185.143 103.875L193.658 105.243L193.284 107.567L184.922 106.224C181.989 105.753 180.563 106.861 180.05 110.054C179.538 113.247 180.545 114.745 183.477 115.217L191.84 116.56L191.463 118.906L182.948 117.538C178.995 116.903 177.09 114.057 177.791 109.691Z" fill="black"/>
<path d="M176.071 79.9893L172.514 68.7465L186.567 64.3005L190.124 75.5433L188.09 76.187L185.25 67.2095L181.306 68.457L184.047 77.1199L182.033 77.7569L179.293 69.0941L175.265 70.3682L178.105 79.3456L176.071 79.9893Z" fill="black"/>
<path d="M160.439 49.4121L159.066 47.4729L171.097 38.9564L175.52 45.2051C177.452 47.9345 177.354 50.5376 175.11 52.1265C173.116 53.5374 170.968 53.091 169.24 50.9175L169.115 51.0064C169.524 52.1181 169.29 52.9304 168.841 53.8952L166.782 58.3723L165.205 56.1457L167.167 51.8728C167.737 50.6605 167.738 49.8242 166.671 48.3158L165.107 46.1072L160.439 49.4121ZM170.728 42.1286L166.598 45.0522L169.636 49.3437C170.78 50.9598 171.908 51.3738 173.417 50.306C174.889 49.2637 174.91 48.0362 173.766 46.4202L170.728 42.1286Z" fill="black"/>
<path d="M149.777 39.2165L147.966 37.6781L157.51 26.4448L159.32 27.9832L149.777 39.2165Z" fill="black"/>
<path d="M127.107 25.935L124.959 24.9188L131.263 11.5949L133.411 12.611L130.739 18.2588L138.574 21.9659L141.246 16.3182L143.374 17.325L137.07 30.6489L134.942 29.6421L137.661 23.8949L129.826 20.1878L127.107 25.935Z" fill="black"/>
</svg>
