<svg width="800" height="800" viewBox="0 0 800 800" fill="none" xmlns="http://www.w3.org/2000/svg">
<g clip-path="url(#clip0_1181_98)">
<path d="M400 800C346.016 800 293.594 789.453 244.297 768.594C196.641 748.438 153.906 719.531 117.188 682.812C80.4688 646.094 51.5625 603.359 31.4062 555.703C10.5469 506.406 0 453.984 0 400C0 384.453 12.5781 371.875 28.125 371.875C43.6719 371.875 56.25 384.453 56.25 400C56.25 446.406 65.3125 491.406 83.2812 533.828C100.625 574.766 125.391 611.562 156.953 643.125C188.516 674.688 225.312 699.531 266.25 716.797C308.594 734.688 353.594 743.75 400 743.75C446.406 743.75 491.406 734.688 533.828 716.719C574.766 699.375 611.562 674.609 643.125 643.047C674.688 611.484 699.531 574.688 716.797 533.75C734.688 491.406 743.75 446.406 743.75 400C743.75 353.594 734.688 308.594 716.719 266.172C699.434 225.333 674.418 188.22 643.047 156.875C611.737 125.462 574.615 100.44 533.75 83.2031C491.406 65.3125 446.406 56.25 400 56.25C384.453 56.25 371.875 43.6719 371.875 28.125C371.875 12.5781 384.453 0 400 0C453.984 0 506.406 10.5469 555.703 31.4062C603.359 51.5625 646.094 80.4688 682.812 117.188C719.531 153.906 748.359 196.719 768.516 244.297C789.375 293.594 799.922 346.016 799.922 400C799.922 453.984 789.375 506.406 768.516 555.703C748.438 603.359 719.531 646.094 682.812 682.812C646.094 719.531 603.281 748.359 555.703 768.516C506.406 789.453 453.984 800 400 800Z" fill="white"/>
</g>
<defs>
<clipPath id="clip0_1181_98">
<rect width="800" height="800" fill="white"/>
</clipPath>
</defs>
</svg>
