<svg width="26" height="26" viewBox="0 0 26 26" fill="none" xmlns="http://www.w3.org/2000/svg">
<path fill-rule="evenodd" clip-rule="evenodd" d="M13 0C5.82324 0 0 5.82324 0 13C0 20.1768 5.82324 26 13 26C20.1627 26 26 20.1768 26 13C26 5.82324 20.1627 0 13 0ZM21.5868 5.99249C23.1377 7.88191 24.0685 10.2929 24.0965 12.9012C23.7299 12.8307 20.0639 12.0835 16.3698 12.5489C16.2853 12.3656 16.2147 12.168 16.1302 11.9707C15.9045 11.4351 15.6507 10.8852 15.3969 10.3633C19.486 8.69959 21.347 6.30266 21.5868 5.99249ZM13 1.9175C15.82 1.9175 18.4002 2.97517 20.3601 4.7094C20.1627 4.99124 18.4847 7.23318 14.5368 8.71366C12.7179 5.3721 10.7018 2.63666 10.3917 2.21366C11.2234 2.01632 12.0975 1.9175 13 1.9175ZM8.27658 2.9609C8.57274 3.35583 10.5467 6.10533 12.3937 9.3764C7.2051 10.758 2.6226 10.7299 2.12916 10.7299C2.84802 7.2896 5.17451 4.42726 8.27658 2.9609ZM1.88942 13.014V12.6758C2.36884 12.6898 7.75501 12.7603 13.2962 11.0965C13.6203 11.7169 13.9165 12.3513 14.1983 12.986C14.0574 13.0283 13.9025 13.0705 13.7613 13.1128C8.03684 14.9599 4.99124 20.0075 4.73748 20.4305C2.97517 18.4707 1.88942 15.8623 1.88942 13.014ZM13 24.1106C10.4338 24.1106 8.06518 23.2365 6.18983 21.7701C6.38716 21.3611 8.64317 17.0186 14.9035 14.833C14.9315 14.819 14.9458 14.819 14.9739 14.8047C16.5391 18.8513 17.1735 22.2495 17.3428 23.2224C16.0033 23.8004 14.5368 24.1106 13 24.1106ZM19.1898 22.2071C19.077 21.5303 18.485 18.2873 17.0326 14.2972C20.5153 13.7472 23.5607 14.6497 23.9413 14.7766C23.4622 17.8643 21.6856 20.5293 19.1898 22.2071Z" fill="#EA4C89"/>
</svg>
