<svg width="26" height="26" viewBox="0 0 26 26" fill="none" xmlns="http://www.w3.org/2000/svg">
<g clip-path="url(#clip0_842_280)">
<path fill-rule="evenodd" clip-rule="evenodd" d="M22.8234 0C24.5767 0 26 1.4234 26 3.17657V22.8234C26 24.5766 24.5766 26 22.8234 26H17.4169V16.2035H20.7989L21.4424 12.0079H17.4169V9.2852C17.4169 8.13739 17.9792 7.01853 19.7822 7.01853H21.6125V3.44657C21.6125 3.44657 19.9514 3.16311 18.3634 3.16311C15.048 3.16311 12.8811 5.17248 12.8811 8.81019V12.0079H9.19572V16.2035H12.8811V26H3.17657C1.4234 26 0 24.5766 0 22.8234V3.17657C0 1.4234 1.42335 0 3.17657 0H22.8234V0Z" fill="#1777F2"/>
</g>
<defs>
<clipPath id="clip0_842_280">
<rect width="26" height="26" fill="white"/>
</clipPath>
</defs>
</svg>
