<svg width="26" height="26" viewBox="0 0 26 26" fill="none" xmlns="http://www.w3.org/2000/svg">
<path d="M13 0C9.46938 0 9.02667 0.0149805 7.64009 0.0782539C6.2564 0.141375 5.31136 0.361105 4.48444 0.6825C3.62959 1.01471 2.90459 1.45925 2.18192 2.18197C1.4592 2.90464 1.01466 3.62964 0.682449 4.48449C0.361055 5.31136 0.141324 6.2564 0.0782031 7.64009C0.0149297 9.02667 0 9.46938 0 13C0 16.5305 0.0149297 16.9732 0.0782031 18.3598C0.141324 19.7435 0.361055 20.6885 0.682449 21.5154C1.01466 22.3703 1.4592 23.0953 2.18192 23.818C2.90459 24.5407 3.62959 24.9852 4.48444 25.3174C5.31136 25.6388 6.2564 25.8586 7.64009 25.9217C9.02667 25.9849 9.46938 25.9999 13 25.9999C16.5305 25.9999 16.9732 25.9849 18.3598 25.9217C19.7435 25.8586 20.6885 25.6388 21.5154 25.3174C22.3703 24.9852 23.0953 24.5407 23.818 23.818C24.5407 23.0953 24.9852 22.3703 25.3174 21.5154C25.6388 20.6885 25.8586 19.7435 25.9217 18.3598C25.9849 16.9732 25.9999 16.5305 25.9999 13C25.9999 9.46938 25.9849 9.02667 25.9217 7.64009C25.8586 6.2564 25.6388 5.31136 25.3174 4.48449C24.9852 3.62964 24.5407 2.90464 23.818 2.18197C23.0953 1.45925 22.3703 1.01471 21.5154 0.6825C20.6885 0.361105 19.7435 0.141375 18.3598 0.0782539C16.9732 0.0149805 16.5305 0 13 0V0ZM13 2.34239C16.4711 2.34239 16.8823 2.35559 18.2531 2.41815C19.5205 2.47599 20.2089 2.68775 20.667 2.86574C21.2737 3.10157 21.7068 3.3833 22.1617 3.8382C22.6166 4.2931 22.8983 4.72621 23.1342 5.33295C23.3122 5.79104 23.524 6.47938 23.5818 7.74683C23.6443 9.11767 23.6576 9.52885 23.6576 13C23.6576 16.4711 23.6443 16.8823 23.5818 18.2531C23.524 19.5205 23.3122 20.2089 23.1342 20.667C22.8983 21.2737 22.6166 21.7068 22.1617 22.1617C21.7068 22.6166 21.2737 22.8983 20.667 23.1342C20.2089 23.3122 19.5205 23.524 18.2531 23.5817C16.8825 23.6443 16.4714 23.6576 13 23.6576C9.52854 23.6576 9.11752 23.6443 7.74683 23.5817C6.47938 23.524 5.79104 23.3122 5.33295 23.1342C4.72616 22.8983 4.2931 22.6166 3.83815 22.1617C3.38325 21.7068 3.10152 21.2737 2.86574 20.667C2.6877 20.2089 2.47594 19.5205 2.4181 18.2531C2.35554 16.8823 2.34234 16.4711 2.34234 13C2.34234 9.52885 2.35554 9.11767 2.4181 7.74683C2.47594 6.47938 2.6877 5.79104 2.86574 5.33295C3.10152 4.72621 3.38325 4.2931 3.83815 3.8382C4.2931 3.3833 4.72616 3.10157 5.33295 2.86574C5.79104 2.68775 6.47938 2.47599 7.74683 2.41815C9.11767 2.35559 9.52885 2.34239 13 2.34239Z" fill="url(#paint0_linear_842_275)"/>
<path d="M12.998 17.3337C10.6047 17.3337 8.6646 15.3936 8.6646 13.0004C8.6646 10.6071 10.6047 8.66704 12.998 8.66704C15.3911 8.66704 17.3312 10.6071 17.3312 13.0004C17.3312 15.3936 15.3911 17.3337 12.998 17.3337ZM12.998 6.32471C9.31105 6.32471 6.32227 9.31349 6.32227 13.0004C6.32227 16.6872 9.31105 19.676 12.998 19.676C16.6848 19.676 19.6736 16.6872 19.6736 13.0004C19.6736 9.31349 16.6848 6.32471 12.998 6.32471Z" fill="url(#paint1_linear_842_275)"/>
<path d="M21.5028 6.06044C21.5028 6.92204 20.8044 7.62044 19.9428 7.62044C19.0813 7.62044 18.3828 6.92204 18.3828 6.06044C18.3828 5.19888 19.0813 4.50049 19.9428 4.50049C20.8044 4.50049 21.5028 5.19888 21.5028 6.06044Z" fill="url(#paint2_linear_842_275)"/>
<defs>
<linearGradient id="paint0_linear_842_275" x1="15.2755" y1="-1.37761" x2="7.67772" y2="23.7236" gradientUnits="userSpaceOnUse">
<stop stop-color="#515BD4"/>
<stop offset="0.26" stop-color="#9510B8"/>
<stop offset="0.66" stop-color="#E51804"/>
<stop offset="1" stop-color="#FEDA77"/>
</linearGradient>
<linearGradient id="paint1_linear_842_275" x1="15.2735" y1="-1.3772" x2="7.67569" y2="23.724" gradientUnits="userSpaceOnUse">
<stop stop-color="#515BD4"/>
<stop offset="0.26" stop-color="#9510B8"/>
<stop offset="0.66" stop-color="#E51804"/>
<stop offset="1" stop-color="#FFBF00"/>
</linearGradient>
<linearGradient id="paint2_linear_842_275" x1="15.279" y1="-1.37771" x2="7.68117" y2="23.7235" gradientUnits="userSpaceOnUse">
<stop stop-color="#515BD4"/>
<stop offset="0.26" stop-color="#9510B8"/>
<stop offset="0.66" stop-color="#E51804"/>
<stop offset="1" stop-color="#FFBF00"/>
</linearGradient>
</defs>
</svg>
