<svg width="26" height="26" viewBox="0 0 26 26" fill="none" xmlns="http://www.w3.org/2000/svg">
<path fill-rule="evenodd" clip-rule="evenodd" d="M26 3.25C26 1.45625 24.5437 0 22.75 0H3.25C1.45625 0 0 1.45625 0 3.25V22.75C0 24.5437 1.45625 26 3.25 26H22.75C24.5437 26 26 24.5437 26 22.75V3.25Z" fill="#2867B2"/>
<path d="M7.45266 9.07324H3.09766V22.1729H7.45266V9.07324Z" fill="white"/>
<path d="M5.30725 2.75635C3.81728 2.75635 2.84375 3.73592 2.84375 5.01982C2.84375 6.27676 3.78767 7.28334 5.24961 7.28334H5.27775C6.79626 7.28334 7.74145 6.27676 7.74145 5.01982C7.71327 3.73592 6.79636 2.75635 5.30725 2.75635Z" fill="white"/>
<path d="M18.155 8.76514C15.845 8.76514 14.8102 10.0355 14.2308 10.9279V9.07318H9.87695C9.93469 10.3019 9.87695 22.1728 9.87695 22.1728H14.2308V14.857C14.2308 14.4654 14.2589 14.074 14.3743 13.7941C14.6886 13.0121 15.4055 12.202 16.6084 12.202C18.1832 12.202 18.8141 13.4037 18.8141 15.1639V22.1728H23.1681V14.6607C23.1681 10.6369 21.0198 8.76514 18.155 8.76514Z" fill="white"/>
</svg>
