<svg width="26" height="26" viewBox="0 0 26 26" fill="none" xmlns="http://www.w3.org/2000/svg">
<path d="M8.17649 23.5628C17.9878 23.5628 23.3542 15.4342 23.3542 8.38509C23.3542 8.15424 23.3542 7.9244 23.3387 7.69558C24.3826 6.94041 25.2838 6.00548 26 4.9344C25.0265 5.36579 23.9936 5.64864 22.9362 5.77366C24.0495 5.10721 24.8833 4.05817 25.2813 2.82317C24.2343 3.44448 23.0886 3.88242 21.8941 4.11799C20.8855 3.04544 19.4768 2.43652 18.0046 2.43652C15.0754 2.43652 12.6652 4.8468 12.6652 7.77587C12.6652 8.18222 12.7116 8.5873 12.8034 8.98309C8.51657 8.76823 4.51694 6.74054 1.80959 3.40975C0.40173 5.83333 1.13019 8.97415 3.4611 10.5306C2.61229 10.5055 1.78171 10.2764 1.04 9.86293V9.93052C1.04071 12.4601 2.84004 14.6588 5.31959 15.1597C4.53431 15.3738 3.71018 15.4051 2.91098 15.2512C3.60806 17.4188 5.61818 18.9129 7.89466 18.9557C6.0061 20.4398 3.67184 21.246 1.26984 21.2437C0.845406 21.2429 0.421383 21.2172 0 21.1667C2.43923 22.732 5.2782 23.5625 8.17649 23.5587" fill="#1DA1F2"/>
</svg>
