<svg width="26" height="26" viewBox="0 0 26 26" fill="none" xmlns="http://www.w3.org/2000/svg">
<g clip-path="url(#clip0_842_285)">
<path d="M25.4566 6.74188C25.1576 5.62316 24.2767 4.74226 23.158 4.44331C21.1302 3.8999 12.9999 3.8999 12.9999 3.8999C12.9999 3.8999 4.86957 3.8999 2.84172 4.44331C1.72326 4.74226 0.842156 5.62316 0.543156 6.74188C0 8.76947 0 13 0 13C0 13 0 17.2304 0.543156 19.2578C0.842156 20.3765 1.72326 21.2576 2.84172 21.5566C4.86957 22.0998 12.9999 22.0998 12.9999 22.0998C12.9999 22.0998 21.1302 22.0998 23.158 21.5566C24.2767 21.2576 25.1576 20.3765 25.4566 19.2578C26 17.2304 26 13 26 13C26 13 26 8.76947 25.4566 6.74188Z" fill="#ED1F24"/>
<path d="M10.4102 16.9002L17.165 13.0001L10.4102 9.1001V16.9002Z" fill="white"/>
</g>
<defs>
<clipPath id="clip0_842_285">
<rect width="26" height="26" fill="white"/>
</clipPath>
</defs>
</svg>
