<?xml version="1.0" encoding="utf-8"?>
<!-- Generator: Adobe Illustrator 25.2.3, SVG Export Plug-In . SVG Version: 6.00 Build 0)  -->
<svg version="1.1" id="Layer_1" xmlns="http://www.w3.org/2000/svg" xmlns:xlink="http://www.w3.org/1999/xlink" x="0px" y="0px"
	 viewBox="0 0 100 100" style="enable-background:new 0 0 100 100;" xml:space="preserve">
<g>
	<path d="M50,5c14.1,0,28.1,0,42.2,0c0,26.4,0,52.7,0,79.1c-0.3,0-0.5,0-0.6,0c-14.1,0-28.2,0-42.3,0c-0.6,0-0.8-0.3-1.1-0.8
		C46,77.9,42.3,73.8,37.1,71c-0.2-0.1-0.4-0.3-0.7-0.4c14.1-9.2,9.5-30.9-7.4-33.7c0-3.6,0-7.1,0-10.8c7,0,14,0,21.1,0
		C50,19,50,12,50,5z M71.1,46.7c0.2-0.1,0.5-0.2,0.7-0.3c2.8-1.4,4.5-3.7,4.6-6.9c0.1-3.2-1.3-5.7-4.2-7.2c-1.2-0.6-2.6-0.8-3.9-1
		c-1.4-0.2-2.4-1.2-2.5-2.6c0-1.3,0.9-2.5,2.2-2.7c1.3-0.2,2.6,0.6,3,1.9c0.1,0.2,0.1,0.4,0.2,0.6c1.8,0,3.5,0,5.2,0
		c-0.2-3.2-1.6-5.6-4.5-7c-0.6-0.3-0.9-0.7-0.8-1.3c0.1-0.7,0-1.4,0-2.1c0-0.9,0-1.8,0-2.7c-1.8,0-3.5,0-5.3,0c0,1.6,0,3.2,0,4.8
		c0,0.7-0.2,1-0.8,1.3c-2.8,1.4-4.4,3.7-4.5,6.8c-0.1,3.1,1.3,5.6,4.1,7.1c1.2,0.6,2.5,0.8,3.8,1c1.5,0.2,2.6,1.2,2.6,2.6
		c0,1.3-0.9,2.4-2.2,2.7c-1.4,0.2-2.6-0.6-3-2.1c0-0.2-0.1-0.3-0.1-0.5c-1.7,0-3.3,0-4.9,0c-0.1,0-0.2,0-0.2,0.1
		c-0.1,2.8,1.7,5.7,4.4,7c0.7,0.3,0.9,0.7,0.8,1.4c0,1.6,0,3.1,0,4.7c1.8,0,3.5,0,5.3,0C71.1,50.5,71.1,48.6,71.1,46.7z M81.6,63
		c0-1.8,0-3.5,0-5.2c-10.5,0-21,0-31.5,0c0,1.8,0,3.5,0,5.2C60.6,63,71.1,63,81.6,63z M50.1,68.3c0,1.7,0,3.5,0,5.2
		c10.5,0,21,0,31.5,0c0-1.8,0-3.5,0-5.2C71.1,68.3,60.6,68.3,50.1,68.3z"/>
	<path d="M44.7,95c-12.3,0-24.6,0-36.8,0c-0.5-7.6,1.8-13.9,8.2-18.2c6.2-4.2,12.9-4.4,19.3-0.7C42.5,80.3,45.2,86.9,44.7,95z"/>
	<path d="M39.5,55.1c0,7.3-5.9,13.2-13.2,13.2c-7.3,0-13.2-5.9-13.2-13.2c0-7.2,5.9-13.1,13.1-13.2C33.5,41.9,39.4,47.8,39.5,55.1z"
		/>
	<path d="M44.7,6.9c0,4.5,0,9.2,0,13.9c-4.7,0-9.3,0-13.9,0C35.4,16.2,40.1,11.5,44.7,6.9z"/>
</g>
</svg>
